<?xml version="1.0" encoding="utf-8"?>
<!-- Generator: Adobe Illustrator 21.1.0, SVG Export Plug-In . SVG Version: 6.00 Build 0)  -->
<svg version="1.1" id="Capa_1" xmlns="http://www.w3.org/2000/svg" xmlns:xlink="http://www.w3.org/1999/xlink" x="0px" y="0px"
	 viewBox="0 0 33.8 33.8" style="enable-background:new 0 0 33.8 33.8;" xml:space="preserve">
<style type="text/css">
	.st0{fill:#485974;}
</style>
<path id="Shape" class="st0" d="M14.9,21.9c1.7,0,3.3-0.6,4.5-1.6l5.4,5.4c0.1,0.1,0.3,0.2,0.5,0.2c0.2,0,0.3-0.1,0.5-0.2
	c0.2-0.2,0.2-0.7,0-0.9l-5.4-5.4c1-1.2,1.6-2.8,1.6-4.5c0-3.9-3.1-7-7-7c-3.9,0-7,3.2-7,7C7.9,18.8,11.1,21.9,14.9,21.9z M14.9,9.2
	c3.2,0,5.7,2.6,5.7,5.7c0,3.2-2.6,5.7-5.7,5.7s-5.7-2.6-5.7-5.7S11.8,9.2,14.9,9.2z"/>
</svg>
