<?xml version="1.0" encoding="utf-8"?>
<!-- Generator: Adobe Illustrator 24.0.0, SVG Export Plug-In . SVG Version: 6.00 Build 0)  -->
<svg version="1.1" id="Capa_1" xmlns="http://www.w3.org/2000/svg" xmlns:xlink="http://www.w3.org/1999/xlink" x="0px" y="0px"
	 viewBox="0 0 19.7 19.7" style="enable-background:new 0 0 19.7 19.7;" xml:space="preserve">
<style type="text/css">
	.st0{fill:#AAAAAA;}
</style>
<g>
	<path class="st0" d="M18.2,19.7h-2c0-3.4-2.8-6.1-6.3-6.1s-6.3,2.7-6.3,6.1h-2c0-4.5,3.7-8.1,8.3-8.1
		C14.5,11.6,18.2,15.3,18.2,19.7z"/>
	<path class="st0" d="M9.9,11c-3,0-5.5-2.5-5.5-5.5c0-3,2.5-5.5,5.5-5.5c3,0,5.5,2.5,5.5,5.5S12.9,11,9.9,11z M9.9,2
		C7.9,2,6.4,3.6,6.4,5.5S7.9,9,9.9,9c1.9,0,3.5-1.6,3.5-3.5S11.8,2,9.9,2z"/>
</g>
</svg>
